# xmcd
#
# Track frame offsets: 
#        150
#        20544
#        41086
#        58833
#        86277
#        110492
#        135329
#        163464
#        183472
#        202240
#        221545
#        245177
#
# Disc length: 3658 seconds
#
# Revision: 0
# Processed by: cddbd v1.5.2PL0 Copyright (c) Steve Scherf et al.
# Submitted via: ExactAudioCopy v0.99pb4
#
DISCID=b50e480c
DTITLE=Spincycle - Diffuse Interreflection
DYEAR=2008
DGENRE=Christian Rock
TTITLE0=Tremormaker
TTITLE1=Rise
TTITLE2=Propitation
TTITLE3=What remains?
TTITLE4=Vivible
TTITLE5=Looking to the one
TTITLE6=All I need
TTITLE7=Grace Train
TTITLE8=God Infusion
TTITLE9=At your name
TTITLE10=The Dichotomy
TTITLE11=New Wine
EXTD=
EXTT0=
EXTT1=
EXTT2=
EXTT3=
EXTT4=
EXTT5=
EXTT6=
EXTT7=
EXTT8=
EXTT9=
EXTT10=
EXTT11=
PLAYORDER=
